<mxfile host="app.diagrams.net" agent="Mozilla/5.0 (Windows NT 10.0; Win64; x64) AppleWebKit/537.36 (KHTML, like Gecko) Chrome/134.0.0.0 Safari/537.36 Edg/134.0.0.0" version="26.2.3">
  <diagram name="Page-1" id="2YBvvXClWsGukQMizWep">
    <mxGraphModel dx="1417" dy="633" grid="1" gridSize="10" guides="1" tooltips="1" connect="1" arrows="1" fold="1" page="1" pageScale="1" pageWidth="850" pageHeight="1100" math="0" shadow="0">
      <root>
        <mxCell id="0" />
        <mxCell id="1" parent="0" />
        <mxCell id="dc0nqa92FMbY49DklVH1-14" value="" style="swimlane;startSize=0;" parent="1" vertex="1">
          <mxGeometry x="100" y="510" width="680" height="530" as="geometry">
            <mxRectangle x="80" y="30" width="50" height="40" as="alternateBounds" />
          </mxGeometry>
        </mxCell>
        <mxCell id="dc0nqa92FMbY49DklVH1-15" value="Proriétaire&amp;nbsp;&lt;div&gt;d&#39;entreprise&lt;/div&gt;" style="text;html=1;align=center;verticalAlign=middle;resizable=0;points=[];autosize=1;strokeColor=none;fillColor=none;" parent="dc0nqa92FMbY49DklVH1-14" vertex="1">
          <mxGeometry x="60" y="85" width="90" height="40" as="geometry" />
        </mxCell>
        <mxCell id="dc0nqa92FMbY49DklVH1-20" value="" style="endArrow=none;dashed=1;html=1;rounded=0;entryX=0.467;entryY=1.056;entryDx=0;entryDy=0;entryPerimeter=0;exitX=0.149;exitY=0.998;exitDx=0;exitDy=0;exitPerimeter=0;" parent="dc0nqa92FMbY49DklVH1-14" target="dc0nqa92FMbY49DklVH1-15" edge="1" source="dc0nqa92FMbY49DklVH1-14">
          <mxGeometry width="50" height="50" relative="1" as="geometry">
            <mxPoint x="105" y="340" as="sourcePoint" />
            <mxPoint x="223.22033898305085" y="150" as="targetPoint" />
            <Array as="points">
              <mxPoint x="102" y="530" />
            </Array>
          </mxGeometry>
        </mxCell>
        <mxCell id="dc0nqa92FMbY49DklVH1-21" value="" style="shape=umlActor;verticalLabelPosition=bottom;verticalAlign=top;html=1;outlineConnect=0;" parent="dc0nqa92FMbY49DklVH1-14" vertex="1">
          <mxGeometry x="90" y="30" width="30" height="60" as="geometry" />
        </mxCell>
        <mxCell id="JqO3XtMDO4aosh0jrj5c-3" value="" style="endArrow=block;endFill=1;html=1;edgeStyle=orthogonalEdgeStyle;align=left;verticalAlign=top;rounded=0;" edge="1" parent="dc0nqa92FMbY49DklVH1-14">
          <mxGeometry x="-1" relative="1" as="geometry">
            <mxPoint x="280" y="200" as="sourcePoint" />
            <mxPoint x="440" y="200" as="targetPoint" />
          </mxGeometry>
        </mxCell>
        <mxCell id="JqO3XtMDO4aosh0jrj5c-4" value="3:&amp;nbsp;EnvoyerDonnées()" style="edgeLabel;resizable=0;html=1;align=left;verticalAlign=bottom;" connectable="0" vertex="1" parent="JqO3XtMDO4aosh0jrj5c-3">
          <mxGeometry x="-1" relative="1" as="geometry">
            <mxPoint x="20" as="offset" />
          </mxGeometry>
        </mxCell>
        <mxCell id="JqO3XtMDO4aosh0jrj5c-10" value="4a:&amp;nbsp;&lt;span style=&quot;background-color: light-dark(#ffffff, var(--ge-dark-color, #121212)); color: light-dark(rgb(0, 0, 0), rgb(255, 255, 255));&quot;&gt;[données_valides]&lt;/span&gt;" style="html=1;verticalAlign=bottom;endArrow=block;curved=0;rounded=0;" edge="1" parent="dc0nqa92FMbY49DklVH1-14">
          <mxGeometry relative="1" as="geometry">
            <mxPoint x="610.18" y="240" as="sourcePoint" />
            <mxPoint x="439.81043478260875" y="240" as="targetPoint" />
          </mxGeometry>
        </mxCell>
        <mxCell id="JqO3XtMDO4aosh0jrj5c-13" value="8:&amp;nbsp;AfficherSuccès()" style="html=1;verticalAlign=bottom;endArrow=block;curved=0;rounded=0;" edge="1" parent="dc0nqa92FMbY49DklVH1-14">
          <mxGeometry relative="1" as="geometry">
            <mxPoint x="279.75" y="412.44" as="sourcePoint" />
            <mxPoint x="100.25" y="412.44" as="targetPoint" />
          </mxGeometry>
        </mxCell>
        <mxCell id="JqO3XtMDO4aosh0jrj5c-12" value="" style="html=1;verticalAlign=bottom;endArrow=block;curved=0;rounded=0;" edge="1" parent="dc0nqa92FMbY49DklVH1-14">
          <mxGeometry relative="1" as="geometry">
            <mxPoint x="610.45" y="370" as="sourcePoint" />
            <mxPoint x="439.54761904761904" y="370" as="targetPoint" />
          </mxGeometry>
        </mxCell>
        <mxCell id="dc0nqa92FMbY49DklVH1-11" value="Système de recommandation" style="shape=umlLifeline;perimeter=lifelinePerimeter;whiteSpace=wrap;html=1;container=1;dropTarget=0;collapsible=0;recursiveResize=0;outlineConnect=0;portConstraint=eastwest;newEdgeStyle={&quot;curved&quot;:0,&quot;rounded&quot;:0};size=60;" parent="dc0nqa92FMbY49DklVH1-14" vertex="1">
          <mxGeometry x="380" y="40" width="120" height="490" as="geometry" />
        </mxCell>
        <mxCell id="dc0nqa92FMbY49DklVH1-12" value="Interface utilisateur" style="shape=umlLifeline;perimeter=lifelinePerimeter;whiteSpace=wrap;html=1;container=1;dropTarget=0;collapsible=0;recursiveResize=0;outlineConnect=0;portConstraint=eastwest;newEdgeStyle={&quot;curved&quot;:0,&quot;rounded&quot;:0};size=60;" parent="dc0nqa92FMbY49DklVH1-14" vertex="1">
          <mxGeometry x="220" y="40" width="120" height="490" as="geometry" />
        </mxCell>
        <mxCell id="JqO3XtMDO4aosh0jrj5c-14" value="Base de données" style="shape=umlLifeline;perimeter=lifelinePerimeter;whiteSpace=wrap;html=1;container=1;dropTarget=0;collapsible=0;recursiveResize=0;outlineConnect=0;portConstraint=eastwest;newEdgeStyle={&quot;curved&quot;:0,&quot;rounded&quot;:0};size=60;" vertex="1" parent="dc0nqa92FMbY49DklVH1-14">
          <mxGeometry x="560" y="40" width="100" height="490" as="geometry" />
        </mxCell>
        <mxCell id="JqO3XtMDO4aosh0jrj5c-50" value="" style="endArrow=block;endFill=1;html=1;edgeStyle=orthogonalEdgeStyle;align=left;verticalAlign=top;rounded=0;" edge="1" parent="dc0nqa92FMbY49DklVH1-14">
          <mxGeometry x="-1" relative="1" as="geometry">
            <mxPoint x="100" y="150" as="sourcePoint" />
            <mxPoint x="280" y="150" as="targetPoint" />
          </mxGeometry>
        </mxCell>
        <mxCell id="JqO3XtMDO4aosh0jrj5c-44" value="&lt;span style=&quot;font-size: 11px; text-align: left; background-color: rgb(255, 255, 255);&quot;&gt;1: Saisir le nom de l&#39;entreprise&lt;/span&gt;" style="text;html=1;align=center;verticalAlign=middle;resizable=0;points=[];autosize=1;strokeColor=none;fillColor=none;" vertex="1" parent="dc0nqa92FMbY49DklVH1-14">
          <mxGeometry x="105" y="120" width="170" height="30" as="geometry" />
        </mxCell>
        <mxCell id="JqO3XtMDO4aosh0jrj5c-54" value="4:&amp;nbsp;ValiderDonnées()" style="text;html=1;align=center;verticalAlign=middle;resizable=0;points=[];autosize=1;strokeColor=none;fillColor=none;" vertex="1" parent="dc0nqa92FMbY49DklVH1-14">
          <mxGeometry x="460" y="190" width="130" height="30" as="geometry" />
        </mxCell>
        <mxCell id="JqO3XtMDO4aosh0jrj5c-55" value="" style="endArrow=block;endFill=1;html=1;edgeStyle=orthogonalEdgeStyle;align=left;verticalAlign=top;rounded=0;entryX=0.5;entryY=0.183;entryDx=0;entryDy=0;entryPerimeter=0;" edge="1" parent="dc0nqa92FMbY49DklVH1-14">
          <mxGeometry x="-1" relative="1" as="geometry">
            <mxPoint x="440" y="220" as="sourcePoint" />
            <mxPoint x="610" y="220" as="targetPoint" />
          </mxGeometry>
        </mxCell>
        <mxCell id="JqO3XtMDO4aosh0jrj5c-73" value="" style="endArrow=block;endFill=1;html=1;edgeStyle=orthogonalEdgeStyle;align=left;verticalAlign=top;rounded=0;" edge="1" parent="dc0nqa92FMbY49DklVH1-14">
          <mxGeometry x="-1" relative="1" as="geometry">
            <mxPoint x="100" y="180" as="sourcePoint" />
            <mxPoint x="280" y="180" as="targetPoint" />
          </mxGeometry>
        </mxCell>
        <mxCell id="JqO3XtMDO4aosh0jrj5c-74" value="2: RemplirFormulaire()" style="edgeLabel;resizable=0;html=1;align=left;verticalAlign=bottom;" connectable="0" vertex="1" parent="JqO3XtMDO4aosh0jrj5c-73">
          <mxGeometry x="-1" relative="1" as="geometry">
            <mxPoint x="25" as="offset" />
          </mxGeometry>
        </mxCell>
        <mxCell id="JqO3XtMDO4aosh0jrj5c-77" value="4b:[erreurs]" style="html=1;verticalAlign=bottom;endArrow=block;curved=0;rounded=0;" edge="1" parent="dc0nqa92FMbY49DklVH1-14">
          <mxGeometry relative="1" as="geometry">
            <mxPoint x="610.1800000000001" y="260" as="sourcePoint" />
            <mxPoint x="439.8104347826088" y="260" as="targetPoint" />
          </mxGeometry>
        </mxCell>
        <mxCell id="JqO3XtMDO4aosh0jrj5c-78" value="alt" style="shape=umlFrame;whiteSpace=wrap;html=1;pointerEvents=0;" vertex="1" parent="dc0nqa92FMbY49DklVH1-14">
          <mxGeometry y="280" width="660" height="220" as="geometry" />
        </mxCell>
        <mxCell id="JqO3XtMDO4aosh0jrj5c-81" value="5: EnregistrerService()" style="text;html=1;align=center;verticalAlign=middle;resizable=0;points=[];autosize=1;strokeColor=none;fillColor=none;" vertex="1" parent="dc0nqa92FMbY49DklVH1-14">
          <mxGeometry x="455" y="310" width="140" height="30" as="geometry" />
        </mxCell>
        <mxCell id="JqO3XtMDO4aosh0jrj5c-82" value="6:succès" style="text;html=1;align=center;verticalAlign=middle;resizable=0;points=[];autosize=1;strokeColor=none;fillColor=none;" vertex="1" parent="dc0nqa92FMbY49DklVH1-14">
          <mxGeometry x="485" y="340" width="70" height="30" as="geometry" />
        </mxCell>
        <mxCell id="JqO3XtMDO4aosh0jrj5c-83" value="" style="endArrow=block;endFill=1;html=1;edgeStyle=orthogonalEdgeStyle;align=left;verticalAlign=top;rounded=0;entryX=0.5;entryY=0.183;entryDx=0;entryDy=0;entryPerimeter=0;" edge="1" parent="dc0nqa92FMbY49DklVH1-14">
          <mxGeometry x="-1" relative="1" as="geometry">
            <mxPoint x="440" y="310" as="sourcePoint" />
            <mxPoint x="610" y="310" as="targetPoint" />
          </mxGeometry>
        </mxCell>
        <mxCell id="JqO3XtMDO4aosh0jrj5c-85" value="7. ConfirmationAjout()" style="text;html=1;align=center;verticalAlign=middle;resizable=0;points=[];autosize=1;strokeColor=none;fillColor=none;" vertex="1" parent="dc0nqa92FMbY49DklVH1-14">
          <mxGeometry x="290" y="370" width="140" height="30" as="geometry" />
        </mxCell>
        <mxCell id="JqO3XtMDO4aosh0jrj5c-86" value="" style="html=1;verticalAlign=bottom;endArrow=block;curved=0;rounded=0;" edge="1" parent="dc0nqa92FMbY49DklVH1-14">
          <mxGeometry relative="1" as="geometry">
            <mxPoint x="440" y="396.89" as="sourcePoint" />
            <mxPoint x="280" y="396.89" as="targetPoint" />
          </mxGeometry>
        </mxCell>
        <mxCell id="JqO3XtMDO4aosh0jrj5c-89" value="sinon" style="text;html=1;align=center;verticalAlign=middle;resizable=0;points=[];autosize=1;strokeColor=none;fillColor=none;" vertex="1" parent="dc0nqa92FMbY49DklVH1-14">
          <mxGeometry x="325" y="420" width="50" height="30" as="geometry" />
        </mxCell>
        <mxCell id="JqO3XtMDO4aosh0jrj5c-92" value="" style="html=1;verticalAlign=bottom;endArrow=block;curved=0;rounded=0;" edge="1" parent="dc0nqa92FMbY49DklVH1-14">
          <mxGeometry relative="1" as="geometry">
            <mxPoint x="279.4999999999998" y="480" as="sourcePoint" />
            <mxPoint x="105" y="480" as="targetPoint" />
          </mxGeometry>
        </mxCell>
        <mxCell id="JqO3XtMDO4aosh0jrj5c-91" value="10: AfficherErreur()" style="text;html=1;align=center;verticalAlign=middle;resizable=0;points=[];autosize=1;strokeColor=none;fillColor=none;" vertex="1" parent="dc0nqa92FMbY49DklVH1-14">
          <mxGeometry x="130" y="450" width="120" height="30" as="geometry" />
        </mxCell>
        <mxCell id="JqO3XtMDO4aosh0jrj5c-96" value="si [données valides]" style="text;html=1;align=center;verticalAlign=middle;resizable=0;points=[];autosize=1;strokeColor=none;fillColor=none;" vertex="1" parent="dc0nqa92FMbY49DklVH1-14">
          <mxGeometry x="460" y="280" width="130" height="30" as="geometry" />
        </mxCell>
        <mxCell id="JqO3XtMDO4aosh0jrj5c-57" value="" style="swimlane;startSize=0;" vertex="1" parent="1">
          <mxGeometry x="100" y="50" width="680" height="340" as="geometry">
            <mxRectangle x="80" y="30" width="50" height="40" as="alternateBounds" />
          </mxGeometry>
        </mxCell>
        <mxCell id="JqO3XtMDO4aosh0jrj5c-58" value="Utilisateur" style="text;html=1;align=center;verticalAlign=middle;resizable=0;points=[];autosize=1;strokeColor=none;fillColor=none;" vertex="1" parent="JqO3XtMDO4aosh0jrj5c-57">
          <mxGeometry x="65" y="90" width="80" height="30" as="geometry" />
        </mxCell>
        <mxCell id="JqO3XtMDO4aosh0jrj5c-59" value="" style="endArrow=none;dashed=1;html=1;rounded=0;entryX=0.467;entryY=1.056;entryDx=0;entryDy=0;entryPerimeter=0;" edge="1" parent="JqO3XtMDO4aosh0jrj5c-57" target="JqO3XtMDO4aosh0jrj5c-58">
          <mxGeometry width="50" height="50" relative="1" as="geometry">
            <mxPoint x="105" y="340" as="sourcePoint" />
            <mxPoint x="223.22033898305085" y="150" as="targetPoint" />
            <Array as="points">
              <mxPoint x="102" y="340" />
            </Array>
          </mxGeometry>
        </mxCell>
        <mxCell id="JqO3XtMDO4aosh0jrj5c-60" value="" style="shape=umlActor;verticalLabelPosition=bottom;verticalAlign=top;html=1;outlineConnect=0;" vertex="1" parent="JqO3XtMDO4aosh0jrj5c-57">
          <mxGeometry x="90" y="30" width="30" height="60" as="geometry" />
        </mxCell>
        <mxCell id="JqO3XtMDO4aosh0jrj5c-61" value="" style="endArrow=block;endFill=1;html=1;edgeStyle=orthogonalEdgeStyle;align=left;verticalAlign=top;rounded=0;" edge="1" parent="JqO3XtMDO4aosh0jrj5c-57">
          <mxGeometry x="-1" relative="1" as="geometry">
            <mxPoint x="280" y="170" as="sourcePoint" />
            <mxPoint x="440" y="170" as="targetPoint" />
          </mxGeometry>
        </mxCell>
        <mxCell id="JqO3XtMDO4aosh0jrj5c-62" value="2:&amp;nbsp;&lt;span style=&quot;background-color: light-dark(#ffffff, var(--ge-dark-color, #121212)); color: light-dark(rgb(0, 0, 0), rgb(255, 255, 255));&quot;&gt;Envoyer requête&lt;/span&gt;" style="edgeLabel;resizable=0;html=1;align=left;verticalAlign=bottom;" connectable="0" vertex="1" parent="JqO3XtMDO4aosh0jrj5c-61">
          <mxGeometry x="-1" relative="1" as="geometry">
            <mxPoint x="40" as="offset" />
          </mxGeometry>
        </mxCell>
        <mxCell id="JqO3XtMDO4aosh0jrj5c-63" value="4:&amp;nbsp;&lt;span style=&quot;background-color: light-dark(#ffffff, var(--ge-dark-color, #121212)); color: light-dark(rgb(0, 0, 0), rgb(255, 255, 255));&quot;&gt;Récupérer services&lt;/span&gt;" style="html=1;verticalAlign=bottom;endArrow=block;curved=0;rounded=0;" edge="1" parent="JqO3XtMDO4aosh0jrj5c-57" target="JqO3XtMDO4aosh0jrj5c-66">
          <mxGeometry relative="1" as="geometry">
            <mxPoint x="610" y="230" as="sourcePoint" />
            <mxPoint x="469.99925925925913" y="230" as="targetPoint" />
          </mxGeometry>
        </mxCell>
        <mxCell id="JqO3XtMDO4aosh0jrj5c-64" value="6:&amp;nbsp;&lt;span style=&quot;background-color: light-dark(#ffffff, var(--ge-dark-color, #121212)); color: light-dark(rgb(0, 0, 0), rgb(255, 255, 255));&quot;&gt;Afficher services recommandés&lt;/span&gt;" style="html=1;verticalAlign=bottom;endArrow=block;curved=0;rounded=0;" edge="1" parent="JqO3XtMDO4aosh0jrj5c-57" source="JqO3XtMDO4aosh0jrj5c-67">
          <mxGeometry relative="1" as="geometry">
            <mxPoint x="310" y="280" as="sourcePoint" />
            <mxPoint x="100" y="280" as="targetPoint" />
          </mxGeometry>
        </mxCell>
        <mxCell id="JqO3XtMDO4aosh0jrj5c-65" value="5:&amp;nbsp;&lt;span style=&quot;background-color: light-dark(#ffffff, var(--ge-dark-color, #121212)); color: light-dark(rgb(0, 0, 0), rgb(255, 255, 255));&quot;&gt;Retourner résultats&lt;/span&gt;" style="html=1;verticalAlign=bottom;endArrow=block;curved=0;rounded=0;" edge="1" parent="JqO3XtMDO4aosh0jrj5c-57" target="JqO3XtMDO4aosh0jrj5c-67">
          <mxGeometry relative="1" as="geometry">
            <mxPoint x="440" y="250" as="sourcePoint" />
            <mxPoint x="300" y="253" as="targetPoint" />
          </mxGeometry>
        </mxCell>
        <mxCell id="JqO3XtMDO4aosh0jrj5c-66" value="Moteur de recommandation" style="shape=umlLifeline;perimeter=lifelinePerimeter;whiteSpace=wrap;html=1;container=1;dropTarget=0;collapsible=0;recursiveResize=0;outlineConnect=0;portConstraint=eastwest;newEdgeStyle={&quot;curved&quot;:0,&quot;rounded&quot;:0};size=60;" vertex="1" parent="JqO3XtMDO4aosh0jrj5c-57">
          <mxGeometry x="380" y="40" width="120" height="300" as="geometry" />
        </mxCell>
        <mxCell id="JqO3XtMDO4aosh0jrj5c-67" value="Interface utilisateur" style="shape=umlLifeline;perimeter=lifelinePerimeter;whiteSpace=wrap;html=1;container=1;dropTarget=0;collapsible=0;recursiveResize=0;outlineConnect=0;portConstraint=eastwest;newEdgeStyle={&quot;curved&quot;:0,&quot;rounded&quot;:0};size=60;" vertex="1" parent="JqO3XtMDO4aosh0jrj5c-57">
          <mxGeometry x="220" y="40" width="120" height="300" as="geometry" />
        </mxCell>
        <mxCell id="JqO3XtMDO4aosh0jrj5c-68" value="Base de données" style="shape=umlLifeline;perimeter=lifelinePerimeter;whiteSpace=wrap;html=1;container=1;dropTarget=0;collapsible=0;recursiveResize=0;outlineConnect=0;portConstraint=eastwest;newEdgeStyle={&quot;curved&quot;:0,&quot;rounded&quot;:0};size=60;" vertex="1" parent="JqO3XtMDO4aosh0jrj5c-57">
          <mxGeometry x="560" y="40" width="100" height="300" as="geometry" />
        </mxCell>
        <mxCell id="JqO3XtMDO4aosh0jrj5c-69" value="" style="endArrow=block;endFill=1;html=1;edgeStyle=orthogonalEdgeStyle;align=left;verticalAlign=top;rounded=0;" edge="1" parent="JqO3XtMDO4aosh0jrj5c-57">
          <mxGeometry x="-1" relative="1" as="geometry">
            <mxPoint x="100" y="150" as="sourcePoint" />
            <mxPoint x="280" y="150" as="targetPoint" />
          </mxGeometry>
        </mxCell>
        <mxCell id="JqO3XtMDO4aosh0jrj5c-70" value="&lt;span style=&quot;font-size: 11px; text-align: left; background-color: rgb(255, 255, 255);&quot;&gt;1:&amp;nbsp;&lt;/span&gt;&lt;span style=&quot;background-color: transparent; color: light-dark(rgb(0, 0, 0), rgb(255, 255, 255));&quot;&gt;Rechercher un service&lt;/span&gt;" style="text;html=1;align=center;verticalAlign=middle;resizable=0;points=[];autosize=1;strokeColor=none;fillColor=none;" vertex="1" parent="JqO3XtMDO4aosh0jrj5c-57">
          <mxGeometry x="110" y="120" width="160" height="30" as="geometry" />
        </mxCell>
        <mxCell id="JqO3XtMDO4aosh0jrj5c-71" value="3: Analyser préférences" style="text;html=1;align=center;verticalAlign=middle;resizable=0;points=[];autosize=1;strokeColor=none;fillColor=none;" vertex="1" parent="JqO3XtMDO4aosh0jrj5c-57">
          <mxGeometry x="440" y="170" width="150" height="30" as="geometry" />
        </mxCell>
        <mxCell id="JqO3XtMDO4aosh0jrj5c-72" value="" style="endArrow=block;endFill=1;html=1;edgeStyle=orthogonalEdgeStyle;align=left;verticalAlign=top;rounded=0;entryX=0.5;entryY=0.183;entryDx=0;entryDy=0;entryPerimeter=0;" edge="1" parent="JqO3XtMDO4aosh0jrj5c-57">
          <mxGeometry x="-1" relative="1" as="geometry">
            <mxPoint x="440" y="198" as="sourcePoint" />
            <mxPoint x="610" y="198" as="targetPoint" />
          </mxGeometry>
        </mxCell>
        <mxCell id="JqO3XtMDO4aosh0jrj5c-90" value="" style="html=1;verticalAlign=bottom;endArrow=block;curved=0;rounded=0;" edge="1" parent="1">
          <mxGeometry relative="1" as="geometry">
            <mxPoint x="540" y="958" as="sourcePoint" />
            <mxPoint x="380" y="958" as="targetPoint" />
          </mxGeometry>
        </mxCell>
        <mxCell id="JqO3XtMDO4aosh0jrj5c-95" value="9: Champs invalides" style="text;html=1;align=center;verticalAlign=middle;resizable=0;points=[];autosize=1;strokeColor=none;fillColor=none;" vertex="1" parent="1">
          <mxGeometry x="385" y="958" width="130" height="30" as="geometry" />
        </mxCell>
      </root>
    </mxGraphModel>
  </diagram>
</mxfile>
